<svg xmlns="http://www.w3.org/2000/svg" width="560" height="620"><path d="m0 0v200h100v60h-100v60h100v60h-100v240h560v-240h-100v-60h100v-60h-100v-60h100v-200z" fill="#202020"/><path d="m318 389.375h40" fill="#800080" stroke="#fff" transform="translate(-58 -134.375)"/><path d="m0 260h100v-60h-100v-200h560v200h-100v60h100v10h-110v-80h100v-180h-260v80h-20v-80h-260v180h100v80h-110z" fill="#800080"/><path d="m0 310h110v80h-100v100h40v20h-40v100h540v-100h-40v-20h40v-100h-100v-80h110v10h-100v60h100v240h-560v-240h100v-60h-100z" fill="#800080"/><path d="m50 50v40h60v-40z" fill="#800080"/><path d="m450 50v40h60v-40z" fill="#800080"/><path d="m330 50v40h80v-40z" fill="#800080"/><path d="m150 50v40h80v-40z" fill="#800080"/><path d="m50 130v20h60v-20z" fill="#800080"/><path d="m450 130v20h60v-20z" fill="#800080"/><path d="m210 130v20h60v60h20v-60h60v-20z" fill="#800080"/><path d="m410 130h-20v60h-60v20h60v60h20z" fill="#800080"/><path d="m150 130h20v60h60v20h-60v60h-20z" fill="#800080"/><path d="m150 310v80h20v-80z" fill="#800080"/><path d="m150 310v80h20v-80z" fill="#800080"/><path d="m390 310v80h20v-80z" fill="#800080"/><path d="m210 370v20h60v60h20v-60h60v-20z" fill="#800080"/><path d="m150 430v20h80v-20z" fill="#800080"/><path d="m330 430v20h80v-20z" fill="#800080"/><path d="m50 430v20h40v60h20v-80z" fill="#800080"/><path d="m510 430v20h-40v60h-20v-80z" fill="#800080"/><path d="m210 490v20h60v60h20v-60h60v-20z" fill="#800080"/><path d="m230 570v-20h-60v-60h-20v60h-100v20z" fill="#800080"/><path d="m330 570v-20h60v-60h20v60h100v20z" fill="#800080"/><path d="m210 250v80h140v-80h-50v10h40v60h-120v-60h40v-10z" fill="#800080"/><path d="m0 260v60h3v-20l4 7s-4-12.562-4-19v-13l4 6c-3-11-4-16-4-21z" fill="#17c0e9"/><path d="m560 320v-60h-3v20l-4-7s4 12.562 4 19v13l-4-6c3 11 4 16 4 21z" fill="#f60"/></svg>