<?xml version="1.0" encoding="UTF-8" standalone="no"?>
<!-- Created with Inkscape (http://www.inkscape.org/) -->

<svg
   xmlns:dc="http://purl.org/dc/elements/1.1/"
   xmlns:cc="http://creativecommons.org/ns#"
   xmlns:rdf="http://www.w3.org/1999/02/22-rdf-syntax-ns#"
   xmlns:svg="http://www.w3.org/2000/svg"
   xmlns="http://www.w3.org/2000/svg"
   xmlns:sodipodi="http://sodipodi.sourceforge.net/DTD/sodipodi-0.dtd"
   xmlns:inkscape="http://www.inkscape.org/namespaces/inkscape"
   width="560"
   height="620"
   id="svg2"
   version="1.1"
   inkscape:version="0.48.1 r9760"
   sodipodi:docname="maze.svg"
   inkscape:export-filename="/Users/richard_towers/Sites/imgur-man/img/opt/maze.png"
   inkscape:export-xdpi="90"
   inkscape:export-ydpi="90">
  <defs
     id="defs4" />
  <sodipodi:namedview
     id="base"
     pagecolor="#ffffff"
     bordercolor="#666666"
     borderopacity="1.0"
     inkscape:pageopacity="0.0"
     inkscape:pageshadow="2"
     inkscape:zoom="0.74318521"
     inkscape:cx="312.32076"
     inkscape:cy="274.06417"
     inkscape:document-units="px"
     inkscape:current-layer="layer1"
     showgrid="true"
     fit-margin-top="0"
     fit-margin-left="0"
     fit-margin-right="0"
     fit-margin-bottom="0"
     inkscape:window-width="1237"
     inkscape:window-height="751"
     inkscape:window-x="43"
     inkscape:window-y="0"
     inkscape:window-maximized="0">
    <inkscape:grid
       type="xygrid"
       id="grid2996"
       empspacing="5"
       visible="true"
       enabled="true"
       snapvisiblegridlinesonly="true" />
  </sodipodi:namedview>
  <metadata
     id="metadata7">
    <rdf:RDF>
      <cc:Work
         rdf:about="">
        <dc:format>image/svg+xml</dc:format>
        <dc:type
           rdf:resource="http://purl.org/dc/dcmitype/StillImage" />
        <dc:title></dc:title>
      </cc:Work>
    </rdf:RDF>
  </metadata>
  <g
     inkscape:label="Layer 1"
     inkscape:groupmode="layer"
     id="layer1"
     transform="translate(-58,-134.375)">
    <path
       style="fill:#202020;stroke:none;stroke-width:1px;stroke-linecap:butt;stroke-linejoin:miter;stroke-opacity:1;fill-opacity:1"
       d="m 0,0 0,200 100,0 0,60 -100,0 0,60 100,0 0,60 -100,0 0,240 560,0 0,-240 -100,0 0,-60 100,0 0,-60 -100,0 0,-60 100,0 0,-200 z"
       id="path3925"
       inkscape:connector-curvature="0"
       transform="translate(58,134.375)" />
    <path
       style="fill:#800080;stroke:#ffffff"
       d="m 318,389.375 40,0"
       id="path3812"
       inkscape:connector-curvature="0" />
    <path
       style="fill:#800080;stroke:none"
       d="m 58,394.375 100,0 0,-60 -100,0 0,-200 560,0 0,200 -100,0 0,60 100,0 0,10 -110,0 0,-80 100,0 0,-180 -260,0 0,80 -20,0 0,-80 -260,0 0,180 100,0 0,80 -110,0 z"
       id="path2998"
       inkscape:connector-curvature="0" />
    <path
       style="fill:#800080;stroke:none"
       d="m 58,444.375 110,0 0,80 -100,0 0,100 40,0 0,20 -40,0 0,100 540,0 0,-100 -40,0 0,-20 40,0 0,-100 -100,0 0,-80 110,0 0,10 -100,0 0,60 100,0 0,240 -560,0 0,-240 100,0 0,-60 -100,0 z"
       id="path3768"
       inkscape:connector-curvature="0" />
    <path
       style="fill:#800080;stroke:none"
       d="m 108,184.375 0,40 60,0 0,-40 z"
       id="path3770"
       inkscape:connector-curvature="0" />
    <path
       inkscape:connector-curvature="0"
       id="path3772"
       d="m 508,184.375 0,40 60,0 0,-40 z"
       style="fill:#800080;stroke:none" />
    <path
       style="fill:#800080;stroke:none"
       d="m 388,184.375 0,40 80,0 0,-40 z"
       id="path3774"
       inkscape:connector-curvature="0"
       sodipodi:nodetypes="ccccc" />
    <path
       sodipodi:nodetypes="ccccc"
       inkscape:connector-curvature="0"
       id="path3776"
       d="m 208,184.375 0,40 80,0 0,-40 z"
       style="fill:#800080;stroke:none" />
    <path
       inkscape:connector-curvature="0"
       id="path3778"
       d="m 108,264.375 0,20 60,0 0,-20 z"
       style="fill:#800080;stroke:none"
       sodipodi:nodetypes="ccccc" />
    <path
       sodipodi:nodetypes="ccccc"
       style="fill:#800080;stroke:none"
       d="m 508,264.375 0,20 60,0 0,-20 z"
       id="path3780"
       inkscape:connector-curvature="0" />
    <path
       inkscape:connector-curvature="0"
       id="path3782"
       d="m 268,264.375 0,20 60,0 0,60 20,0 0,-60 60,0 0,-20 z"
       style="fill:#800080;stroke:none"
       sodipodi:nodetypes="ccccccccc" />
    <path
       sodipodi:nodetypes="ccccccccc"
       style="fill:#800080;stroke:none"
       d="m 468,264.375 -20,0 0,60 -60,0 0,20 60,0 0,60 20,0 z"
       id="path3784"
       inkscape:connector-curvature="0" />
    <path
       inkscape:connector-curvature="0"
       id="path3786"
       d="m 208,264.375 20,0 0,60 60,0 0,20 -60,0 0,60 -20,0 z"
       style="fill:#800080;stroke:none"
       sodipodi:nodetypes="ccccccccc" />
    <path
       sodipodi:nodetypes="ccccc"
       style="fill:#800080;stroke:none"
       d="m 208,444.375 0,80 20,0 0,-80 z"
       id="path3788"
       inkscape:connector-curvature="0" />
    <path
       inkscape:connector-curvature="0"
       id="path3790"
       d="m 208,444.375 0,80 20,0 0,-80 z"
       style="fill:#800080;stroke:none"
       sodipodi:nodetypes="ccccc" />
    <path
       sodipodi:nodetypes="ccccc"
       style="fill:#800080;stroke:none"
       d="m 448,444.375 0,80 20,0 0,-80 z"
       id="path3792"
       inkscape:connector-curvature="0" />
    <path
       sodipodi:nodetypes="ccccccccc"
       style="fill:#800080;stroke:none"
       d="m 268,504.375 0,20 60,0 0,60 20,0 0,-60 60,0 0,-20 z"
       id="path3794"
       inkscape:connector-curvature="0" />
    <path
       inkscape:connector-curvature="0"
       id="path3796"
       d="m 208,564.375 0,20 80,0 0,-20 z"
       style="fill:#800080;stroke:none"
       sodipodi:nodetypes="ccccc" />
    <path
       sodipodi:nodetypes="ccccc"
       style="fill:#800080;stroke:none"
       d="m 388,564.375 0,20 80,0 0,-20 z"
       id="path3798"
       inkscape:connector-curvature="0" />
    <path
       sodipodi:nodetypes="ccccccc"
       style="fill:#800080;stroke:none"
       d="m 108,564.375 0,20 40,0 0,60 20,0 0,-80 z"
       id="path3800"
       inkscape:connector-curvature="0" />
    <path
       inkscape:connector-curvature="0"
       id="path3802"
       d="m 568,564.375 0,20 -40,0 0,60 -20,0 0,-80 z"
       style="fill:#800080;stroke:none"
       sodipodi:nodetypes="ccccccc" />
    <path
       inkscape:connector-curvature="0"
       id="path3804"
       d="m 268,624.375 0,20 60,0 0,60 20,0 0,-60 60,0 0,-20 z"
       style="fill:#800080;stroke:none"
       sodipodi:nodetypes="ccccccccc" />
    <path
       sodipodi:nodetypes="ccccccccc"
       style="fill:#800080;stroke:none"
       d="m 288,704.375 0,-20 -60,0 0,-60 -20,0 0,60 -100,0 0,20 z"
       id="path3806"
       inkscape:connector-curvature="0" />
    <path
       inkscape:connector-curvature="0"
       id="path3808"
       d="m 388,704.375 0,-20 60,0 0,-60 20,0 0,60 100,0 0,20 z"
       style="fill:#800080;stroke:none"
       sodipodi:nodetypes="ccccccccc" />
    <path
       sodipodi:nodetypes="ccccccccccccc"
       style="fill:#800080;stroke:none"
       d="m 268,384.375 0,80 140,0 0,-80 -50,0 0,10 40,0 0,60 -120,0 0,-60 40,0 0,-10 z"
       id="path3810"
       inkscape:connector-curvature="0" />
    <path
       style="fill:#17c0e9;fill-opacity:1;stroke:none"
       d="m 58,394.375 0,60 3,0 0,-20 4,7 c 0,0 -4,-12.56226 -4,-19 0,-6 0,-13 0,-13 l 4,6 c -3,-11 -4,-16 -4,-21 z"
       id="path3088"
       inkscape:connector-curvature="0"
       sodipodi:nodetypes="cccccscccc" />
    <path
       sodipodi:nodetypes="cccccscccc"
       inkscape:connector-curvature="0"
       id="path3919"
       d="m 618,454.375 0,-60 -3,0 0,20 -4,-7 c 0,0 4,12.56226 4,19 0,6 0,13 0,13 l -4,-6 c 3,11 4,16 4,21 z"
       style="fill:#ff6600;fill-opacity:1;stroke:none" />
  </g>
</svg>
